<svg width="23" height="23" viewBox="0 0 23 23" fill="none" xmlns="http://www.w3.org/2000/svg">
    <path d="M21.6658 11.2939C21.6658 17.0224 17.0219 21.6663 11.2935 21.6663" stroke="#196DF5" stroke-width="1.8432"
        stroke-linecap="round" stroke-linejoin="round" />
    <path d="M0.921387 11.2942C0.921387 5.56572 5.56523 0.921875 11.2937 0.921875" stroke="#196DF5"
        stroke-width="1.8432" stroke-linecap="round" stroke-linejoin="round" />
    <path
        d="M0.921387 11.2943C0.921549 12.5092 1.13764 13.7145 1.55958 14.8538C1.75255 15.383 2.29661 15.6981 2.85163 15.6023L3.98819 15.4019C4.90681 15.2399 5.53126 14.3783 5.39935 13.4549L5.05727 11.0604C4.99104 10.5968 4.73959 10.18 4.36045 9.90518C3.9813 9.63037 3.50689 9.52113 3.04574 9.60244L1.0167 9.96021"
        stroke="#196DF5" stroke-width="1.8432" stroke-linecap="round" stroke-linejoin="round" />
    <path d="M21.6658 11.2942C21.6658 5.56572 17.0219 0.921875 11.2935 0.921875" stroke="#196DF5" stroke-width="1.8432"
        stroke-linecap="round" stroke-linejoin="round" />
    <path
        d="M21.6659 11.2943C21.6658 12.5092 21.4497 13.7145 21.0277 14.8538C20.8348 15.383 20.2907 15.6981 19.7357 15.6023L18.5991 15.4019C17.6805 15.2399 17.0561 14.3783 17.188 13.4549L17.5301 11.0604C17.5963 10.5968 17.8477 10.18 18.2269 9.90518C18.606 9.63037 19.0804 9.52113 19.5416 9.60244L21.5706 9.96021"
        stroke="#196DF5" stroke-width="1.8432" stroke-linecap="round" stroke-linejoin="round" />
    <path
        d="M13.0137 11.8596C13.0103 11.8596 13.0071 11.8617 13.0058 11.8649C13.0044 11.8682 13.0052 11.8719 13.0076 11.8743C13.0101 11.8768 13.0138 11.8775 13.017 11.8762C13.0202 11.8749 13.0223 11.8717 13.0223 11.8682C13.0225 11.8659 13.0216 11.8636 13.02 11.862C13.0183 11.8604 13.0161 11.8595 13.0137 11.8596"
        stroke="#196DF5" stroke-width="1.8432" stroke-linecap="round" stroke-linejoin="round" />
    <path
        d="M9.57331 11.8635C9.56982 11.8635 9.56668 11.8656 9.56535 11.8689C9.56401 11.8721 9.56475 11.8758 9.56722 11.8782C9.56968 11.8807 9.57339 11.8814 9.5766 11.8801C9.57982 11.8788 9.58191 11.8756 9.58191 11.8721C9.58207 11.8698 9.58121 11.8675 9.57956 11.8659C9.57791 11.8642 9.57563 11.8634 9.57331 11.8635"
        stroke="#196DF5" stroke-width="1.8432" stroke-linecap="round" stroke-linejoin="round" />
</svg>