<svg width="36" height="36" viewBox="0 0 36 36" fill="none" xmlns="http://www.w3.org/2000/svg">
    <path
        d="M18 36C8.0625 36 0 27.9375 0 18C0 8.0625 8.0625 0 18 0C27.9375 0 36 8.0625 36 18C36 27.9375 27.9375 36 18 36ZM16.125 26.5568C16.858 26.5568 17.5227 26.1818 17.9659 25.5341L25.875 13.4318C26.1818 12.9886 26.3523 12.5284 26.3523 12.1023C26.3523 11.0455 25.4148 10.2955 24.392 10.2955C23.7273 10.2955 23.1648 10.6534 22.7216 11.3693L16.0739 21.9375L13.108 18.2727C12.6477 17.7273 12.1705 17.4886 11.5568 17.4886C10.517 17.4886 9.66477 18.3239 9.66477 19.3807C9.66477 19.875 9.81818 20.3011 10.2102 20.7784L14.2159 25.5511C14.7614 26.2159 15.358 26.5568 16.125 26.5568Z"
        fill="#079235" />
</svg>