<svg width="118" height="35" viewBox="0 0 118 35" fill="none" xmlns="http://www.w3.org/2000/svg">
    <path
        d="M79.7218 2.26825H78.3809V1.9844C78.3809 1.7811 78.3809 1.3745 79.1531 1.3745H79.5604V0.442383H78.7881C77.9313 0.442383 77.2397 0.848983 77.2397 1.90384V3.4075H79.7218V2.27208V2.26825Z"
        fill="white" />
    <path
        d="M59.2983 16.9333C59.2983 17.593 59.8286 18.0687 60.5201 18.0687C61.254 18.0687 61.7804 17.593 61.7804 16.9333C61.7804 16.2735 61.2502 15.7979 60.5201 15.7979C59.8286 15.7979 59.2983 16.2735 59.2983 16.9333Z"
        fill="white" />
    <path d="M79.7218 4.54297H77.2397V14.3704H79.7218V4.54297Z" fill="white" />
    <path
        d="M74.9917 10.5566C74.9917 7.83698 73.2435 6.33333 70.2312 6.33333H67.3842L69.6626 1.9873H67.0999L64.6601 6.33333V8.28194H69.9508C71.6605 8.28194 72.5135 9.1335 72.5135 10.6372V12.4247H61.621V5.55848H59.1389V12.4247H54.8665V9.25625C54.8665 7.34599 53.8099 5.55848 51.0012 5.55848H48.7958V7.46874H50.5133C51.9772 7.46874 52.3844 8.48524 52.3844 9.41735V12.4247H47.5049V14.3733H74.9955V10.5566H74.9917Z"
        fill="white" />
    <path
        d="M57.1022 18.0726C57.836 18.0726 58.3624 17.5969 58.3624 16.9372C58.3624 16.2774 57.8322 15.8018 57.1022 15.8018C56.4106 15.8018 55.8804 16.2774 55.8804 16.9372C55.8804 17.5969 56.4106 18.0726 57.1022 18.0726Z"
        fill="white" />
    <path
        d="M25.5924 22.9453C23.8442 22.9453 22.5417 23.6358 21.7695 25.0972C21.4429 25.7877 21.2393 26.6009 21.2393 27.5752C21.2393 28.5495 21.4429 29.3627 21.7695 30.0953C22.1345 30.7858 22.6224 31.2729 23.314 31.6795C23.9633 32.0056 24.7779 32.2089 25.6731 32.2089C26.3224 32.2089 26.8949 32.1283 27.3406 31.9634C27.8286 31.8023 28.2358 31.599 28.6008 31.3151C28.9274 31.0313 29.1695 30.7474 29.3731 30.4214C29.5767 30.0953 29.7381 29.6887 29.8188 29.3243H27.4597C27.3368 29.7309 26.7681 30.4214 25.7499 30.4214C24.9354 30.4214 24.2861 30.0148 23.9595 29.3243C23.8058 28.9791 23.729 28.5955 23.7174 28.1467H29.8572V27.4141C29.8572 26.5203 29.6958 25.7071 29.3693 25.0167C28.6354 23.6358 27.2522 22.9453 25.5847 22.9453H25.5924ZM25.5924 24.7328C26.8911 24.7328 27.3713 25.6995 27.4789 26.6431H23.7482C23.8942 25.2698 24.7087 24.7328 25.5963 24.7328H25.5924Z"
        fill="white" />
    <path
        d="M35.3976 22.9453C33.6494 22.9453 32.3469 23.6358 31.5746 25.0972C31.2481 25.7877 31.0444 26.6009 31.0444 27.5752C31.0444 28.5495 31.2481 29.3627 31.5746 30.0953C31.9397 30.7858 32.4276 31.2729 33.1192 31.6795C33.7685 32.0056 34.5831 32.2089 35.4783 32.2089C36.1276 32.2089 36.7001 32.1283 37.1458 31.9634C37.6337 31.8023 38.041 31.599 38.406 31.3151C38.7326 31.0313 38.9746 30.7474 39.1783 30.4214C39.3819 30.0953 39.5433 29.6887 39.624 29.3243H37.2649C37.1419 29.7309 36.5733 30.4214 35.5551 30.4214C34.7406 30.4214 34.0913 30.0148 33.7647 29.3243C33.611 28.9791 33.5342 28.5955 33.5226 28.1467H39.6624V27.4141C39.6624 26.5203 39.501 25.7071 39.1744 25.0167C38.4406 23.6358 37.0574 22.9453 35.3899 22.9453H35.3976ZM35.3976 24.7328C36.6962 24.7328 37.1765 25.6995 37.2841 26.6431H33.5534C33.6994 25.2698 34.5139 24.7328 35.4014 24.7328H35.3976Z"
        fill="white" />
    <path
        d="M20.8705 23.1103H18.1041L14.9728 26.7505V20.0225H12.4907V32.0057H14.9728V29.1364L15.6567 28.4L18.1886 32.0057H21.0741L17.5009 26.9692L20.8705 23.1103Z"
        fill="white" />
    <path
        d="M47.3594 24.6101C47.1672 24.2457 46.9559 23.9887 46.6678 23.7164C46.199 23.2638 45.592 22.9454 44.5507 22.9454C43.0446 22.9454 41.9458 23.678 41.3349 25.0589C41.0505 25.7494 40.8892 26.6009 40.8892 27.5753C40.8892 28.5496 41.0505 29.3628 41.3349 30.0954C41.6614 30.7859 42.0687 31.273 42.5951 31.6796C43.1176 32.0555 43.8169 32.209 44.5469 32.209C45.3192 32.209 46.176 31.9251 46.6639 31.438C46.9482 31.1925 47.1941 30.9086 47.3555 30.5442V32.0057H49.8375V20.0225H47.3555V24.614L47.3594 24.6101ZM47.1557 28.9562C46.7484 29.8499 46.2182 30.2143 45.4075 30.2143C45.0003 30.2143 44.6737 30.0916 44.3894 29.8883C44.0628 29.685 43.8591 29.3589 43.6978 28.9523C43.5364 28.5879 43.4519 28.1008 43.4519 27.5714C43.4519 27.0037 43.5326 26.5166 43.6978 26.1483C44.0244 25.4157 44.6353 24.9285 45.4075 24.9285C45.8148 24.9285 46.1414 25.0513 46.4641 25.2546C47.0328 25.6612 47.3594 26.5549 47.3594 27.5714C47.3594 28.1008 47.3171 28.5879 47.1557 28.9523V28.9562Z"
        fill="white" />
    <path
        d="M6.42793 20.0225H4.10727L0 32.0057H2.60498L3.50789 29.1633H7.78037L8.66791 32.0057H11.2729L7.20405 20.0225H6.43177H6.42793ZM4.09574 27.2914L5.65181 22.3777L7.18868 27.2914H4.0919H4.09574Z"
        fill="white" />
    <path d="M96.5236 8.17132V0L87.8789 1.5186V18.4396L117.068 13.3094V4.55973L96.5236 8.17132Z" fill="#47B6FF" />
    <path d="M117.076 23.5537H87.8789V32.2089H117.076V23.5537Z" fill="#006FFF" />
    <path
        d="M61.0639 26.4682H59.2798C59.2472 26.2374 59.1807 26.0323 59.0802 25.8531C58.9797 25.6712 58.8508 25.5164 58.6933 25.3888C58.5358 25.2611 58.3538 25.1634 58.1474 25.0955C57.9438 25.0276 57.7225 24.9937 57.4835 24.9937C57.0517 24.9937 56.6757 25.1009 56.3552 25.3155C56.0348 25.5273 55.7863 25.8368 55.6098 26.2442C55.4333 26.6488 55.3451 27.1403 55.3451 27.7187C55.3451 28.3134 55.4333 28.813 55.6098 29.2176C55.789 29.6222 56.0389 29.9277 56.3593 30.1341C56.6797 30.3405 57.0504 30.4437 57.4713 30.4437C57.7075 30.4437 57.9261 30.4124 58.1271 30.35C58.3307 30.2875 58.5113 30.1965 58.6688 30.0771C58.8263 29.9549 58.9567 29.8069 59.0598 29.6331C59.1658 29.4593 59.2391 29.2611 59.2798 29.0384L61.0639 29.0465C61.0177 29.4294 60.9023 29.7987 60.7177 30.1545C60.5357 30.5075 60.29 30.8238 59.9804 31.1035C59.6735 31.3805 59.307 31.6004 58.8806 31.7634C58.457 31.9236 57.9777 32.0037 57.4428 32.0037C56.6987 32.0037 56.0334 31.8353 55.4469 31.4986C54.8631 31.1619 54.4014 30.6745 54.062 30.0363C53.7253 29.3982 53.5569 28.6256 53.5569 27.7187C53.5569 26.809 53.728 26.0351 54.0701 25.3969C54.4123 24.7588 54.8766 24.2727 55.4632 23.9387C56.0497 23.602 56.7096 23.4336 57.4428 23.4336C57.9261 23.4336 58.3742 23.5015 58.7869 23.6373C59.2024 23.7731 59.5704 23.9713 59.8908 24.232C60.2112 24.4899 60.4719 24.8063 60.6728 25.181C60.8765 25.5558 61.0069 25.9848 61.0639 26.4682ZM65.1229 32.0118C64.4901 32.0118 63.943 31.8774 63.4813 31.6086C63.0224 31.337 62.6681 30.9596 62.4182 30.4762C62.1684 29.9902 62.0435 29.4267 62.0435 28.7858C62.0435 28.1396 62.1684 27.5747 62.4182 27.0914C62.6681 26.6053 63.0224 26.2279 63.4813 25.959C63.943 25.6875 64.4901 25.5517 65.1229 25.5517C65.7556 25.5517 66.3014 25.6875 66.7603 25.959C67.2219 26.2279 67.5777 26.6053 67.8275 27.0914C68.0773 27.5747 68.2022 28.1396 68.2022 28.7858C68.2022 29.4267 68.0773 29.9902 67.8275 30.4762C67.5777 30.9596 67.2219 31.337 66.7603 31.6086C66.3014 31.8774 65.7556 32.0118 65.1229 32.0118ZM65.131 30.6677C65.4188 30.6677 65.6592 30.5862 65.852 30.4233C66.0448 30.2576 66.19 30.0323 66.2878 29.7471C66.3883 29.462 66.4385 29.1375 66.4385 28.7736C66.4385 28.4098 66.3883 28.0853 66.2878 27.8001C66.19 27.515 66.0448 27.2896 65.852 27.124C65.6592 26.9583 65.4188 26.8755 65.131 26.8755C64.8404 26.8755 64.596 26.9583 64.3978 27.124C64.2023 27.2896 64.0543 27.515 63.9538 27.8001C63.8561 28.0853 63.8072 28.4098 63.8072 28.7736C63.8072 29.1375 63.8561 29.462 63.9538 29.7471C64.0543 30.0323 64.2023 30.2576 64.3978 30.4233C64.596 30.5862 64.8404 30.6677 65.131 30.6677ZM69.3305 31.8896V25.6332H71.0127V26.7248H71.0779C71.192 26.3365 71.3834 26.0432 71.6522 25.845C71.9211 25.644 72.2306 25.5436 72.5809 25.5436C72.6678 25.5436 72.7615 25.549 72.862 25.5598C72.9625 25.5707 73.0507 25.5856 73.1268 25.6047V27.1443C73.0453 27.1199 72.9326 27.0982 72.7887 27.0792C72.6448 27.0602 72.5131 27.0507 72.3936 27.0507C72.1383 27.0507 71.9102 27.1063 71.7093 27.2177C71.511 27.3263 71.3535 27.4783 71.2368 27.6739C71.1227 27.8694 71.0657 28.0948 71.0657 28.35V31.8896H69.3305ZM74.0239 34.2358V25.6332H75.7346V26.6841H75.812C75.8881 26.5157 75.998 26.3446 76.142 26.1708C76.2886 25.9943 76.4787 25.8477 76.7122 25.7309C76.9485 25.6114 77.2417 25.5517 77.592 25.5517C78.0482 25.5517 78.4691 25.6712 78.8547 25.9101C79.2403 26.1464 79.5485 26.5035 79.7794 26.9814C80.0102 27.4566 80.1256 28.0527 80.1256 28.7696C80.1256 29.4674 80.0129 30.0567 79.7875 30.5373C79.5648 31.0153 79.2607 31.3778 78.8751 31.6249C78.4922 31.8693 78.0632 31.9915 77.588 31.9915C77.2512 31.9915 76.9648 31.9358 76.7285 31.8245C76.495 31.7131 76.3035 31.5733 76.1542 31.4049C76.0048 31.2339 75.8908 31.0614 75.812 30.8876H75.7591V34.2358H74.0239ZM75.7224 28.7614C75.7224 29.1334 75.774 29.4579 75.8772 29.7349C75.9804 30.0119 76.1297 30.2278 76.3253 30.3826C76.5208 30.5346 76.7584 30.6107 77.0381 30.6107C77.3205 30.6107 77.5594 30.5333 77.755 30.3785C77.9505 30.221 78.0985 30.0037 78.1989 29.7268C78.3021 29.4471 78.3537 29.1253 78.3537 28.7614C78.3537 28.4002 78.3035 28.0825 78.203 27.8083C78.1025 27.534 77.9545 27.3195 77.759 27.1647C77.5635 27.0099 77.3232 26.9325 77.0381 26.9325C76.7557 26.9325 76.5167 27.0072 76.3212 27.1566C76.1284 27.3059 75.9804 27.5177 75.8772 27.792C75.774 28.0662 75.7224 28.3894 75.7224 28.7614Z"
        fill="white" />
    <path
        d="M13.1062 13.036V5.48094H14.4076V12.8552C14.4076 15.3495 13.0219 16.8316 10.6361 16.8316C8.35873 16.8316 7.08148 15.4459 7.08148 13.4336C7.08148 12.2528 7.40682 11.2045 7.7442 10.5176L8.82866 10.9032C8.56357 11.4937 8.33463 12.3612 8.33463 13.0721C8.33463 14.4819 9.22629 15.1929 10.7204 15.1929C12.1182 15.1929 13.1062 14.506 13.1062 13.036ZM15.952 11.8672V5.48094H17.2533V11.3611C17.2533 12.2769 17.7715 12.4697 18.5185 12.4697H18.5788L18.7836 12.5058L18.7113 14.0722L18.5065 14.1084H18.4583C16.9401 14.1084 15.952 13.4336 15.952 11.8672ZM18.3052 14.0482L18.3775 12.542L18.5824 12.4697H20.7272L20.932 12.5299L20.8597 14.0482L20.6669 14.1084H18.5101L18.3052 14.0482ZM20.4468 14.0482L20.5191 12.542L20.724 12.4697H22.8688L23.0736 12.5299L23.0013 14.0482L22.8086 14.1084H20.6517L20.4468 14.0482ZM22.5885 14.0482L22.6608 12.542L22.8656 12.4697H25.0104L25.2153 12.5299L25.143 14.0482L24.9502 14.1084H22.7933L22.5885 14.0482ZM32.7069 12.4697L32.9117 12.5058L32.8394 14.0722L32.6346 14.1084C31.779 14.1084 31.1163 13.7469 30.8271 13.0239C30.5259 13.6023 29.7909 14.1566 28.6341 14.1566C27.7063 14.1566 27.0315 13.8313 26.6459 13.289C26.3206 13.8192 25.694 14.1084 24.9349 14.1084L24.7301 14.0722L24.8024 12.5058L25.0072 12.4697C25.5856 12.4697 26.0194 12.3612 26.2483 12.0841C26.2363 12.0118 26.2363 11.9515 26.2363 11.8792C26.2363 10.2767 27.3569 8.93915 28.9354 8.93915C30.1524 8.93915 30.9597 9.73442 31.4176 11.2647C31.6947 12.1925 31.9959 12.4697 32.7069 12.4697ZM28.7064 12.5299C29.5981 12.5299 30.1162 12.2528 30.3692 11.9636C30.1042 11.1201 29.5981 10.5779 28.7546 10.5779C27.9352 10.5779 27.3207 11.096 27.3207 11.7467C27.3207 12.2166 27.8027 12.5299 28.7064 12.5299ZM32.4258 14.0482L32.4981 12.542L32.7029 12.4697H34.8477L35.0526 12.5299L34.9803 14.0482L34.7875 14.1084H32.6306L32.4258 14.0482ZM38.4232 12.4697H40.9777V14.1084H34.7722L34.5674 14.0482L34.6276 12.554L34.8445 12.4697H36.0977C35.7362 12.1202 35.5313 11.6262 35.5313 10.9755C35.5313 9.61393 36.5676 8.26438 38.2907 8.26438C39.4474 8.26438 40.2307 8.98735 40.5198 9.45728L39.8451 10.5779C39.5197 10.2887 38.9414 9.90312 38.2304 9.90312C37.3147 9.90312 36.6881 10.4815 36.6881 11.1683C36.6881 12.0479 37.5436 12.4697 38.4232 12.4697ZM43.0516 4.77002H43.9553V5.55324H41.6538V4.80617H42.0032C41.931 4.68567 41.8828 4.52903 41.8828 4.33624C41.8828 3.80606 42.2563 3.27588 42.9431 3.27588C43.3407 3.27588 43.6661 3.49277 43.8227 3.76991L43.4974 4.33624C43.3648 4.23984 43.1962 4.11935 42.9431 4.11935C42.678 4.11935 42.4129 4.25189 42.4129 4.45673C42.4129 4.63748 42.6419 4.77002 43.0516 4.77002ZM43.4733 14.1084H42.1719V6.22801H43.4733V14.1084Z"
        fill="white" />
</svg>