<svg width="169" height="36" viewBox="0 0 169 36" fill="none" xmlns="http://www.w3.org/2000/svg">
    <path
        d="M136.635 12.4761C136.635 13.819 135.69 14.4904 134.372 14.4904C132.93 14.4904 132.072 13.8066 132.072 12.414C132.072 11.6803 132.308 10.8224 132.582 10.238L131.227 9.75306C130.841 10.4991 130.48 11.6182 130.48 12.8864C130.48 15.0873 131.861 16.5794 134.285 16.5794C136.859 16.5794 138.301 14.9132 138.301 12.2772V5.04282H136.635V12.4761Z"
        fill="#73B0FF" />
    <path
        d="M139.731 11.9749C139.731 13.7281 140.75 14.4866 142.479 14.4866H142.553L142.765 14.4493L142.852 12.435L142.64 12.3977H142.566C141.857 12.3977 141.384 12.2112 141.384 11.3657V5.04282H139.731V11.9749Z"
        fill="#73B0FF" />
    <path
        d="M142.33 14.4244L142.541 14.4866H144.149L144.348 14.4244L144.447 12.4599L144.236 12.3977H142.641L142.429 12.4847L142.33 14.4244Z"
        fill="#73B0FF" />
    <path
        d="M143.92 14.4244L144.131 14.4866H145.261L145.459 14.4244L145.559 12.4599L145.348 12.3977H144.23L144.019 12.4847L143.92 14.4244Z"
        fill="#73B0FF" />
    <path
        d="M153.287 12.3977C152.628 12.3977 152.367 12.1241 152.056 11.204C151.547 9.6622 150.701 8.86642 149.383 8.86642C147.704 8.86642 146.511 10.2839 146.511 11.9998V12.0868C146.312 12.3107 145.901 12.3977 145.342 12.3977L145.131 12.435L145.031 14.4493L145.242 14.4866C146.038 14.4866 146.66 14.2006 147.008 13.666C147.418 14.2131 148.102 14.5364 149.047 14.5364C150.291 14.5364 151.024 13.9644 151.348 13.3302C151.646 14.126 152.317 14.4866 153.188 14.4866L153.399 14.4493L153.499 12.435L153.287 12.3977ZM147.816 11.8755C147.816 11.3657 148.401 10.9429 149.172 10.9429C149.955 10.9429 150.465 11.3657 150.751 12.0247C150.465 12.2609 149.955 12.4599 149.122 12.4599C148.252 12.4599 147.816 12.2236 147.816 11.8755Z"
        fill="#73B0FF" />
    <path
        d="M152.972 14.4244L153.184 14.4866H154.792L154.991 14.4244L155.09 12.4599L154.879 12.3977H153.283L153.072 12.4847L152.972 14.4244Z"
        fill="#73B0FF" />
    <path
        d="M154.562 14.4244L154.774 14.4866H155.903L156.102 14.4244L156.202 12.4599L155.99 12.3977H154.873L154.662 12.4847L154.562 14.4244Z"
        fill="#73B0FF" />
    <path
        d="M159.653 12.3977C158.807 12.3977 158.049 12.0744 158.049 11.3532C158.049 10.7564 158.658 10.2715 159.566 10.2715C160.225 10.2715 160.834 10.6072 161.157 10.8559L161.928 9.37621C161.617 8.89129 160.772 8.19498 159.578 8.19498C157.738 8.19498 156.619 9.60003 156.619 11.0051C156.619 11.5895 156.78 12.0495 157.091 12.3977H155.985L155.761 12.4599L155.674 14.4369L155.885 14.4866H162.388V12.3977H159.653Z"
        fill="#73B0FF" />
    <path
        d="M164.638 4.84065C164.203 4.84065 163.979 4.74118 163.979 4.57954C163.979 4.39303 164.252 4.26868 164.514 4.26868C164.75 4.26868 164.936 4.36816 165.098 4.48006L165.446 3.82106C165.26 3.51021 164.924 3.29883 164.526 3.29883C163.805 3.29883 163.407 3.8708 163.407 4.43033C163.407 4.61684 163.444 4.76605 163.506 4.89039H163.146V5.74834H165.608V4.84065H164.638ZM165.222 14.4866V6.43221H163.569V14.4866H165.222Z"
        fill="#73B0FF" />
    <path
        d="M138.3 26.6569H136.219C136.192 26.4433 136.135 26.2505 136.049 26.0785C135.963 25.9065 135.849 25.7595 135.708 25.6375C135.566 25.5154 135.398 25.4225 135.204 25.3587C135.013 25.2921 134.8 25.2588 134.567 25.2588C134.154 25.2588 133.798 25.3601 133.498 25.5626C133.201 25.7651 132.973 26.0577 132.812 26.4405C132.654 26.8233 132.574 27.2865 132.574 27.8302C132.574 28.3961 132.655 28.8704 132.816 29.2532C132.979 29.6332 133.208 29.9203 133.502 30.1145C133.799 30.3059 134.15 30.4016 134.555 30.4016C134.782 30.4016 134.989 30.3724 135.175 30.3142C135.364 30.2559 135.529 30.1713 135.67 30.0604C135.814 29.9466 135.932 29.8093 136.024 29.6485C136.118 29.4848 136.183 29.3003 136.219 29.0951L138.3 29.1076C138.264 29.4848 138.154 29.8565 137.971 30.2226C137.791 30.5888 137.542 30.923 137.226 31.2254C136.91 31.525 136.524 31.7635 136.07 31.941C135.617 32.1186 135.099 32.2073 134.513 32.2073C133.742 32.2073 133.052 32.0381 132.441 31.6997C131.834 31.3585 131.354 30.862 131.002 30.2102C130.649 29.5583 130.473 28.765 130.473 27.8302C130.473 26.8926 130.652 26.0979 131.01 25.4461C131.368 24.7942 131.852 24.2991 132.462 23.9607C133.072 23.6223 133.756 23.4531 134.513 23.4531C135.029 23.4531 135.506 23.5252 135.945 23.6694C136.383 23.8109 136.769 24.0189 137.101 24.2935C137.434 24.5654 137.705 24.8996 137.913 25.2963C138.121 25.693 138.25 26.1465 138.3 26.6569ZM149.161 27.8302C149.161 28.7678 148.981 29.5625 148.62 30.2143C148.26 30.8662 147.772 31.3613 147.156 31.6997C146.543 32.0381 145.855 32.2073 145.092 32.2073C144.327 32.2073 143.637 32.0367 143.024 31.6955C142.411 31.3544 141.924 30.8592 141.564 30.2102C141.206 29.5583 141.027 28.765 141.027 27.8302C141.027 26.8926 141.206 26.0979 141.564 25.4461C141.924 24.7942 142.411 24.2991 143.024 23.9607C143.637 23.6223 144.327 23.4531 145.092 23.4531C145.855 23.4531 146.543 23.6223 147.156 23.9607C147.772 24.2991 148.26 24.7942 148.62 25.4461C148.981 26.0979 149.161 26.8926 149.161 27.8302ZM147.056 27.8302C147.056 27.2754 146.977 26.8067 146.819 26.4239C146.663 26.0411 146.439 25.7512 146.145 25.5543C145.854 25.3573 145.503 25.2588 145.092 25.2588C144.684 25.2588 144.333 25.3573 144.039 25.5543C143.745 25.7512 143.519 26.0411 143.361 26.4239C143.206 26.8067 143.128 27.2754 143.128 27.8302C143.128 28.385 143.206 28.8537 143.361 29.2365C143.519 29.6193 143.745 29.9092 144.039 30.1061C144.333 30.3031 144.684 30.4016 145.092 30.4016C145.503 30.4016 145.854 30.3031 146.145 30.1061C146.439 29.9092 146.663 29.6193 146.819 29.2365C146.977 28.8537 147.056 28.385 147.056 27.8302ZM152.004 32.0908V23.5696H155.524C156.162 23.5696 156.713 23.6847 157.176 23.9149C157.642 24.1424 158.001 24.4697 158.254 24.8969C158.506 25.3213 158.632 25.8247 158.632 26.4072C158.632 26.998 158.503 27.5001 158.245 27.9134C157.987 28.3239 157.621 28.6374 157.147 28.8537C156.673 29.0673 156.111 29.1741 155.462 29.1741H153.236V27.5514H155.079C155.39 27.5514 155.649 27.5112 155.857 27.4308C156.068 27.3475 156.227 27.2227 156.335 27.0563C156.444 26.8871 156.498 26.6707 156.498 26.4072C156.498 26.1437 156.444 25.926 156.335 25.754C156.227 25.5792 156.068 25.4489 155.857 25.3629C155.646 25.2741 155.387 25.2297 155.079 25.2297H154.064V32.0908H152.004ZM156.801 28.1963L158.923 32.0908H156.677L154.596 28.1963H156.801ZM161.402 32.0908V23.5696H164.922C165.56 23.5696 166.111 23.6944 166.574 23.944C167.04 24.1909 167.399 24.5363 167.652 24.9801C167.904 25.4211 168.03 25.9343 168.03 26.5196C168.03 27.1076 167.901 27.6222 167.643 28.0632C167.388 28.5015 167.023 28.8413 166.549 29.0826C166.075 29.3239 165.512 29.4446 164.86 29.4446H162.688V27.8219H164.477C164.788 27.8219 165.047 27.7678 165.255 27.6596C165.466 27.5514 165.625 27.4003 165.734 27.2061C165.842 27.0091 165.896 26.7803 165.896 26.5196C165.896 26.256 165.842 26.0286 165.734 25.8372C165.625 25.643 165.466 25.4932 165.255 25.3878C165.044 25.2824 164.785 25.2297 164.477 25.2297H163.462V32.0908H161.402Z"
        fill="#73B0FF" />
    <path
        d="M38.0378 1.88414H36.6541V1.59122C36.6541 1.38144 36.6541 0.961859 37.451 0.961859H37.8713V0H37.0744C36.1902 0 35.4766 0.419576 35.4766 1.5081V3.05974H38.0378V1.88809V1.88414Z"
        fill="white" />
    <path
        d="M16.9609 17.0164C16.9609 17.6972 17.5081 18.188 18.2217 18.188C18.979 18.188 19.5222 17.6972 19.5222 17.0164C19.5222 16.3356 18.975 15.8447 18.2217 15.8447C17.5081 15.8447 16.9609 16.3356 16.9609 17.0164Z"
        fill="white" />
    <path d="M38.0378 4.23145H35.4766V14.3725H38.0378V4.23145Z" fill="white" />
    <path
        d="M33.157 10.4375C33.157 7.63108 31.353 6.07944 28.2446 6.07944H25.3067L27.6578 1.59473H25.0133L22.4957 6.07944V8.09024H27.9552C29.7195 8.09024 30.5997 8.96898 30.5997 10.5206V12.3652H19.3595V5.27987H16.7983V12.3652H12.3895V9.09564C12.3895 7.12443 11.2992 5.27987 8.40091 5.27987H6.12513V7.25109H7.89739C9.40797 7.25109 9.82823 8.30003 9.82823 9.26189V12.3652H4.79297V14.376H33.1609V10.4375H33.157Z"
        fill="white" />
    <path
        d="M69.8438 2.34725C70.6011 2.34725 71.1443 1.85643 71.1443 1.17561C71.1443 0.494783 70.5971 0 69.8438 0C69.1301 0 68.583 0.490825 68.583 1.17165C68.583 1.85247 69.1301 2.34329 69.8438 2.34329V2.34725Z"
        fill="white" />
    <path
        d="M47.9775 17.0164C47.9775 17.6972 48.5247 18.188 49.2383 18.188C49.9956 18.188 50.5388 17.6972 50.5388 17.0164C50.5388 16.3356 49.9916 15.8447 49.2383 15.8447C48.5247 15.8447 47.9775 16.3356 47.9775 17.0164Z"
        fill="white" />
    <path d="M58.8609 10.9804L57.3107 4.14844H54.7891L56.3393 10.9804H58.8609Z" fill="white" />
    <path
        d="M46.0584 14.3763H52.9452V13.2046C52.9452 11.653 52.3981 10.0618 50.2571 8.76344C49.2897 8.17762 48.1598 7.75804 48.1598 6.83577C48.1915 5.94516 49.0835 5.7037 50.2571 5.7037C50.9272 5.7037 51.9778 5.78683 52.4814 5.95703V3.94623C52.188 3.86311 50.9272 3.65332 49.9637 3.65332C47.6562 3.65332 45.6382 4.49247 45.6382 6.83973C45.6263 8.46657 46.8157 9.10385 47.6523 9.68968C48.7029 10.4022 50.047 11.3244 50.3404 12.3734H46.1417C45.3844 12.3734 43.5368 12.3298 43.5368 9.85988V7.26326H40.9756V9.85988C40.9756 12.3734 41.7329 14.3881 46.0545 14.3881L46.0584 14.3763Z"
        fill="white" />
    <path
        d="M70.2831 3.51844C67.3452 3.51844 65.7077 4.98696 65.7077 7.3738C65.7077 9.5548 67.032 10.9798 69.8628 10.9798H71.4566C71.3734 11.7754 71.0364 12.3612 69.6923 12.3612H63.1861V2.26367H60.6249V12.3652H54.7451V14.376H69.9857C72.9236 14.376 74.0179 12.8243 74.0179 10.0575V4.31405C73.5976 4.06073 71.9205 3.51844 70.2831 3.51844ZM71.4566 9.00856H69.9857C68.9787 9.00856 68.265 8.33961 68.265 7.3738C68.265 6.24965 68.8954 5.4857 70.406 5.4857C70.743 5.4857 71.076 5.52924 71.4566 5.61237V9.00856Z"
        fill="white" />
    <path
        d="M45.71 18.1919C46.4673 18.1919 47.0105 17.7011 47.0105 17.0203C47.0105 16.3395 46.4633 15.8486 45.71 15.8486C44.9964 15.8486 44.4492 16.3395 44.4492 17.0203C44.4492 17.7011 44.9964 18.1919 45.71 18.1919Z"
        fill="white" />
    <path
        d="M14.6973 18.1919C15.4546 18.1919 15.9978 17.7011 15.9978 17.0203C15.9978 16.3395 15.4506 15.8486 14.6973 15.8486C13.9837 15.8486 13.4365 16.3395 13.4365 17.0203C13.4365 17.7011 13.9837 18.1919 14.6973 18.1919Z"
        fill="white" />
    <path d="M0 32.5688H2.56124V27.704H7.64012V25.6497H2.56124V22.3406H8.104V20.2031H0V32.5688Z" fill="white" />
    <path d="M12.3025 20.2031H9.74121V32.5688H12.3025V20.2031Z" fill="white" />
    <path
        d="M48.997 23.2197C47.193 23.2197 45.8489 23.9322 45.052 25.4403C44.715 26.1528 44.5049 26.992 44.5049 27.9974C44.5049 29.0028 44.715 29.8419 45.052 30.5979C45.4287 31.3104 45.9322 31.8131 46.6459 32.2327C47.3159 32.5692 48.1564 32.7789 49.0802 32.7789C49.7503 32.7789 50.341 32.6958 50.8009 32.5256C51.3045 32.3594 51.7247 32.1496 52.1014 31.8567C52.4384 31.5638 52.6882 31.2708 52.8983 30.9344C53.1084 30.5979 53.275 30.1784 53.3582 29.8023H50.9239C50.797 30.2219 50.2102 30.9344 49.1595 30.9344C48.319 30.9344 47.6489 30.5148 47.3119 29.8023C47.1534 29.4461 47.0741 29.0503 47.0622 28.5871H53.3979V27.8311C53.3979 26.9088 53.2313 26.0697 52.8943 25.3572C52.1371 23.9322 50.7098 23.2197 48.989 23.2197H48.997ZM48.997 25.0643C50.3371 25.0643 50.8327 26.0618 50.9437 27.0355H47.0939C47.2445 25.6184 48.0851 25.0643 49.0009 25.0643H48.997Z"
        fill="white" />
    <path
        d="M59.1151 23.2197C57.3112 23.2197 55.9671 23.9322 55.1702 25.4403C54.8332 26.1528 54.623 26.992 54.623 27.9974C54.623 29.0028 54.8332 29.8419 55.1702 30.5979C55.5468 31.3104 56.0504 31.8131 56.764 32.2327C57.4341 32.5692 58.2746 32.7789 59.1984 32.7789C59.8684 32.7789 60.4592 32.6958 60.9191 32.5256C61.4226 32.3594 61.8429 32.1496 62.2195 31.8567C62.5566 31.5638 62.8063 31.2708 63.0165 30.9344C63.2266 30.5979 63.3931 30.1784 63.4764 29.8023H61.042C60.9151 30.2219 60.3284 30.9344 59.2777 30.9344C58.4372 30.9344 57.7671 30.5148 57.4301 29.8023C57.2715 29.4461 57.1922 29.0503 57.1803 28.5871H63.516V27.8311C63.516 26.9088 63.3495 26.0697 63.0125 25.3572C62.2552 23.9322 60.8279 23.2197 59.1072 23.2197H59.1151ZM59.1151 25.0643C60.4552 25.0643 60.9508 26.0618 61.0618 27.0355H57.212C57.3627 25.6184 58.2032 25.0643 59.1191 25.0643H59.1151Z"
        fill="white" />
    <path
        d="M20.2794 23.3896L18.297 30.6016L16.2948 23.3896H13.5234L16.7547 32.6124L16.6715 32.9053C16.5446 33.2418 16.3781 33.4516 16.1679 33.5743C15.9578 33.7009 15.6208 33.7405 15.2441 33.7405C15.034 33.7405 14.5305 33.697 14.4036 33.6574V35.5019C14.6574 35.5455 15.3274 35.6286 15.7041 35.6286C16.4177 35.6286 17.0481 35.5455 17.5516 35.3753C18.0988 35.1655 18.5191 34.8726 18.8957 34.453C19.2724 34.0334 19.5737 33.3961 19.8195 32.7351L23.0111 23.3896H20.2834H20.2794Z"
        fill="white" />
    <path
        d="M44.1237 23.3895H41.2691L38.0378 27.1459V20.2031H35.4766V32.5688H38.0378V29.608L38.7435 28.848L41.3563 32.5688H44.3339L40.6466 27.3715L44.1237 23.3895Z"
        fill="white" />
    <path
        d="M71.4569 24.9372C71.2587 24.5612 71.0406 24.296 70.7433 24.0149C70.2596 23.5479 69.6332 23.2193 68.5587 23.2193C67.0045 23.2193 65.8706 23.9754 65.2402 25.4003C64.9468 26.1128 64.7803 26.9916 64.7803 27.997C64.7803 29.0024 64.9468 29.8415 65.2402 30.5975C65.5772 31.31 65.9975 31.8127 66.5406 32.2323C67.0798 32.6202 67.8014 32.7785 68.5547 32.7785C69.3517 32.7785 70.2358 32.4856 70.7393 31.9829C71.0327 31.7296 71.2865 31.4367 71.453 31.0607V32.5688H74.0142V20.2031H71.453V24.9412L71.4569 24.9372ZM71.2468 29.4219C70.8266 30.3442 70.2794 30.7202 69.4428 30.7202C69.0226 30.7202 68.6856 30.5936 68.3922 30.3838C68.0552 30.174 67.845 29.8375 67.6785 29.418C67.512 29.0419 67.4248 28.5392 67.4248 27.993C67.4248 27.4072 67.508 26.9045 67.6785 26.5245C68.0155 25.7684 68.6459 25.2657 69.4428 25.2657C69.8631 25.2657 70.2001 25.3924 70.5332 25.6022C71.1199 26.0218 71.4569 26.9441 71.4569 27.993C71.4569 28.5392 71.4133 29.0419 71.2468 29.418V29.4219Z"
        fill="white" />
    <path
        d="M29.221 20.2031H26.8262L22.5879 32.5688H25.276L26.2077 29.6357H30.6166L31.5324 32.5688H34.2205L30.0218 20.2031H29.2249H29.221ZM26.8143 27.704L28.4201 22.6335L30.006 27.704H26.8104H26.8143Z"
        fill="white" />
    <path d="M112.499 23.8965H83.168V32.569H112.499V23.8965Z" fill="#006FFF" />
    <path d="M91.8548 8.22132V0L83.168 1.52789V18.5524L112.499 13.3908V4.58763L91.8548 8.22132Z" fill="#47B6FF" />
    <path d="M121.586 4.80371H123.305L123.305 32.5917H121.586L121.586 4.80371Z" fill="#73B0FF" />
</svg>