<svg width="112" height="36" viewBox="0 0 112 36" fill="none" xmlns="http://www.w3.org/2000/svg">
    <path
        d="M37.6556 1.86522H36.2858V1.57525C36.2858 1.36756 36.2858 0.952201 37.0747 0.952201H37.4908V0H36.7019C35.8266 0 35.1201 0.415363 35.1201 1.49296V3.02902H37.6556V1.86914V1.86522Z"
        fill="white" />
    <path
        d="M16.7905 16.8454C16.7905 17.5194 17.3322 18.0053 18.0387 18.0053C18.7883 18.0053 19.3261 17.5194 19.3261 16.8454C19.3261 16.1714 18.7844 15.6855 18.0387 15.6855C17.3322 15.6855 16.7905 16.1714 16.7905 16.8454Z"
        fill="white" />
    <path d="M37.6556 4.18848H35.1201V14.2277H37.6556V4.18848Z" fill="white" />
    <path
        d="M32.8243 10.3331C32.8243 7.55485 31.0384 6.01879 27.9613 6.01879H25.0529L27.3804 1.5791H24.7624L22.2701 6.01879V8.0094H27.6748C29.4214 8.0094 30.2927 8.87931 30.2927 10.4154V12.2414H19.1654V5.22725H16.6299V12.2414H12.2653V9.0047C12.2653 7.05328 11.186 5.22725 8.31683 5.22725H6.0639V7.17867H7.81836C9.31378 7.17867 9.72982 8.21708 9.72982 9.16928V12.2414H4.74512V14.232H32.8282V10.3331H32.8243Z"
        fill="white" />
    <path
        d="M69.1422 2.32368C69.8919 2.32368 70.4296 1.83779 70.4296 1.1638C70.4296 0.489815 69.8879 0 69.1422 0C68.4357 0 67.894 0.485897 67.894 1.15988C67.894 1.83387 68.4357 2.31977 69.1422 2.31977V2.32368Z"
        fill="white" />
    <path
        d="M47.4956 16.8454C47.4956 17.5194 48.0373 18.0053 48.7437 18.0053C49.4934 18.0053 50.0311 17.5194 50.0311 16.8454C50.0311 16.1714 49.4895 15.6855 48.7437 15.6855C48.0373 15.6855 47.4956 16.1714 47.4956 16.8454Z"
        fill="white" />
    <path d="M58.2697 10.8698L56.735 4.10645H54.2388L55.7734 10.8698H58.2697Z" fill="white" />
    <path
        d="M45.5963 14.2325H52.4139V13.0726C52.4139 11.5365 51.8723 9.96128 49.7528 8.676C48.7951 8.09606 47.6765 7.6807 47.6765 6.76768C47.7079 5.88601 48.591 5.64698 49.7528 5.64698C50.4161 5.64698 51.4562 5.72927 51.9547 5.89777V3.90716C51.6642 3.82487 50.4161 3.61719 49.4623 3.61719C47.178 3.61719 45.1802 4.44792 45.1802 6.7716C45.1684 8.38211 46.3459 9.01299 47.1741 9.59294C48.2142 10.2983 49.5448 11.2113 49.8352 12.2497H45.6787C44.929 12.2497 43.1 12.2066 43.1 9.76143V7.19088H40.5645V9.76143C40.5645 12.2497 41.3141 14.2442 45.5923 14.2442L45.5963 14.2325Z"
        fill="white" />
    <path
        d="M69.5777 3.48338C66.6693 3.48338 65.0483 4.93715 65.0483 7.30002C65.0483 9.45913 66.3593 10.8698 69.1617 10.8698H70.7395C70.6571 11.6574 70.3235 12.2374 68.9929 12.2374H62.552V2.24121H60.0165V12.2413H54.1958V14.2319H69.2834C72.1918 14.2319 73.275 12.6958 73.275 9.95678V4.27101C72.859 4.02022 71.1987 3.48338 69.5777 3.48338ZM70.7395 8.91838H69.2834C68.2864 8.91838 67.5799 8.25614 67.5799 7.30002C67.5799 6.18716 68.204 5.43089 69.6994 5.43089C70.033 5.43089 70.3627 5.47399 70.7395 5.55628V8.91838Z"
        fill="white" />
    <path
        d="M45.2506 18.0092C46.0002 18.0092 46.538 17.5233 46.538 16.8493C46.538 16.1753 45.9963 15.6895 45.2506 15.6895C44.5441 15.6895 44.0024 16.1753 44.0024 16.8493C44.0024 17.5233 44.5441 18.0092 45.2506 18.0092Z"
        fill="white" />
    <path
        d="M14.5494 18.0092C15.2991 18.0092 15.8368 17.5233 15.8368 16.8493C15.8368 16.1753 15.2952 15.6895 14.5494 15.6895C13.8429 15.6895 13.3013 16.1753 13.3013 16.8493C13.3013 17.5233 13.8429 18.0092 14.5494 18.0092Z"
        fill="white" />
    <path d="M0 32.2415H2.53553V27.4256H7.56341V25.3919H2.53553V22.116H8.02263V20H0V32.2415Z" fill="white" />
    <path d="M12.1791 20H9.64355V32.2415H12.1791V20Z" fill="white" />
    <path
        d="M48.5046 22.9863C46.7187 22.9863 45.3882 23.6917 44.5993 25.1846C44.2656 25.89 44.0576 26.7207 44.0576 27.716C44.0576 28.7113 44.2656 29.542 44.5993 30.2905C44.9721 30.9958 45.4706 31.4934 46.1771 31.9088C46.8404 32.2419 47.6725 32.4496 48.587 32.4496C49.2503 32.4496 49.8352 32.3673 50.2905 32.1988C50.7889 32.0342 51.205 31.8265 51.5778 31.5365C51.9115 31.2466 52.1587 30.9566 52.3668 30.6235C52.5748 30.2905 52.7396 29.8751 52.8221 29.5028H50.4121C50.2865 29.9182 49.7056 30.6235 48.6655 30.6235C47.8334 30.6235 47.1701 30.2082 46.8365 29.5028C46.6795 29.1502 46.601 28.7583 46.5892 28.2998H52.8613V27.5514C52.8613 26.6384 52.6965 25.8077 52.3628 25.1023C51.6132 23.6917 50.2002 22.9863 48.4968 22.9863H48.5046ZM48.5046 24.8124C49.8312 24.8124 50.3219 25.7998 50.4318 26.7638H46.6206C46.7698 25.361 47.6019 24.8124 48.5085 24.8124H48.5046Z"
        fill="white" />
    <path
        d="M58.5212 22.9863C56.7353 22.9863 55.4048 23.6917 54.6159 25.1846C54.2822 25.89 54.0742 26.7207 54.0742 27.716C54.0742 28.7113 54.2822 29.542 54.6159 30.2905C54.9887 30.9958 55.4872 31.4934 56.1937 31.9088C56.857 32.2419 57.6891 32.4496 58.6036 32.4496C59.2669 32.4496 59.8518 32.3673 60.3071 32.1988C60.8055 32.0342 61.2216 31.8265 61.5944 31.5365C61.9281 31.2466 62.1753 30.9566 62.3834 30.6235C62.5914 30.2905 62.7562 29.8751 62.8387 29.5028H60.4287C60.3031 29.9182 59.7222 30.6235 58.6821 30.6235C57.85 30.6235 57.1867 30.2082 56.8531 29.5028C56.6961 29.1502 56.6176 28.7583 56.6058 28.2998H62.8779V27.5514C62.8779 26.6384 62.7131 25.8077 62.3794 25.1023C61.6298 23.6917 60.2168 22.9863 58.5134 22.9863H58.5212ZM58.5212 24.8124C59.8478 24.8124 60.3385 25.7998 60.4484 26.7638H56.6372C56.7864 25.361 57.6185 24.8124 58.5251 24.8124H58.5212Z"
        fill="white" />
    <path
        d="M20.0763 23.1543L18.1138 30.2938L16.1317 23.1543H13.3882L16.587 32.2845L16.5046 32.5744C16.379 32.9075 16.2142 33.1152 16.0061 33.2367C15.7981 33.3621 15.4645 33.4012 15.0916 33.4012C14.8836 33.4012 14.3851 33.3581 14.2595 33.3189V35.145C14.5107 35.1881 15.174 35.2704 15.5469 35.2704C16.2534 35.2704 16.8775 35.1881 17.3759 35.0196C17.9176 34.8119 18.3336 34.5219 18.7065 34.1066C19.0794 33.6912 19.3777 33.0603 19.621 32.4059L22.7806 23.1543H20.0802H20.0763Z"
        fill="white" />
    <path
        d="M43.681 23.1544H40.855L37.6561 26.8731V20H35.1206V32.2415H37.6561V29.3104L38.3548 28.5581L40.9413 32.2415H43.889L40.2388 27.0964L43.681 23.1544Z"
        fill="white" />
    <path
        d="M70.7395 24.6866C70.5433 24.3143 70.3274 24.0518 70.033 23.7735C69.5542 23.3112 68.934 22.9859 67.8704 22.9859C66.3318 22.9859 65.2092 23.7344 64.5852 25.145C64.2947 25.8504 64.1299 26.7203 64.1299 27.7156C64.1299 28.7109 64.2947 29.5416 64.5852 30.29C64.9188 30.9954 65.3348 31.493 65.8726 31.9084C66.4064 32.2924 67.1207 32.4491 67.8664 32.4491C68.6554 32.4491 69.5306 32.1592 70.0291 31.6615C70.3195 31.4107 70.5707 31.1208 70.7356 30.7485V32.2415H73.2711V20H70.7356V24.6905L70.7395 24.6866ZM70.5315 29.1262C70.1155 30.0393 69.5738 30.4115 68.7456 30.4115C68.3296 30.4115 67.996 30.2861 67.7055 30.0784C67.3719 29.8708 67.1639 29.5377 66.999 29.1223C66.8342 28.7501 66.7478 28.2524 66.7478 27.7117C66.7478 27.1317 66.8303 26.6341 66.999 26.2579C67.3327 25.5094 67.9567 25.0118 68.7456 25.0118C69.1617 25.0118 69.4953 25.1372 69.825 25.3449C70.4059 25.7602 70.7395 26.6732 70.7395 27.7117C70.7395 28.2524 70.6963 28.7501 70.5315 29.1223V29.1262Z"
        fill="white" />
    <path
        d="M28.9268 20H26.5561L22.3604 32.2415H25.0215L25.9438 29.3378H30.3084L31.2151 32.2415H33.8762L29.7197 20H28.9307H28.9268ZM26.5444 27.4256L28.134 22.406L29.704 27.4256H26.5404H26.5444Z"
        fill="white" />
    <path d="M111.37 23.6562H82.333V32.2417H111.37V23.6562Z" fill="#006FFF" />
    <path d="M90.9326 8.13877V0L82.333 1.51255V18.3661L111.37 13.2564V4.54157L90.9326 8.13877Z" fill="#FF5DA1" />
</svg>