<svg width="127" height="23" viewBox="0 0 127 23" fill="none" xmlns="http://www.w3.org/2000/svg">
    <path
        d="M98.0536 11.5673H95.7793C95.7489 11.3338 95.6868 11.123 95.5928 10.935C95.4988 10.747 95.3744 10.5863 95.2198 10.4528C95.0651 10.3194 94.8816 10.2178 94.6694 10.1481C94.4601 10.0753 94.2282 10.0389 93.9734 10.0389C93.5216 10.0389 93.1319 10.1496 92.8044 10.371C92.48 10.5923 92.2298 10.9123 92.0539 11.3307C91.881 11.7492 91.7946 12.2556 91.7946 12.85C91.7946 13.4686 91.8826 13.9871 92.0584 14.4056C92.2374 14.8211 92.4875 15.1349 92.809 15.3472C93.1334 15.5564 93.5171 15.6611 93.9598 15.6611C94.2084 15.6611 94.4344 15.6292 94.6375 15.5655C94.8437 15.5019 95.0242 15.4094 95.1788 15.2881C95.3365 15.1637 95.4654 15.0136 95.5655 14.8377C95.6686 14.6588 95.7398 14.4572 95.7793 14.2328L98.0536 14.2464C98.0142 14.6588 97.8944 15.0652 97.6942 15.4655C97.4971 15.8657 97.2257 16.2312 96.88 16.5617C96.5343 16.8892 96.1128 17.15 95.6155 17.3441C95.1212 17.5381 94.5541 17.6352 93.9143 17.6352C93.0713 17.6352 92.3162 17.4502 91.6491 17.0802C90.985 16.7072 90.4604 16.1644 90.0752 15.4518C89.6901 14.7392 89.4976 13.8719 89.4976 12.85C89.4976 11.825 89.6931 10.9562 90.0843 10.2436C90.4755 9.53098 91.0047 8.98969 91.6718 8.61973C92.3389 8.24977 93.0864 8.06479 93.9143 8.06479C94.4783 8.06479 94.9999 8.14363 95.479 8.30132C95.9582 8.45598 96.3797 8.68341 96.7436 8.98362C97.1075 9.2808 97.4031 9.64621 97.6306 10.0798C97.858 10.5135 97.999 11.0093 98.0536 11.5673ZM108.519 12.85C108.519 13.8749 108.322 14.7437 107.927 15.4564C107.533 16.169 107 16.7103 106.326 17.0802C105.656 17.4502 104.904 17.6352 104.07 17.6352C103.233 17.6352 102.48 17.4487 101.81 17.0757C101.139 16.7027 100.607 16.1614 100.213 15.4518C99.8218 14.7392 99.6262 13.8719 99.6262 12.85C99.6262 11.825 99.8218 10.9562 100.213 10.2436C100.607 9.53098 101.139 8.98969 101.81 8.61973C102.48 8.24977 103.233 8.06479 104.07 8.06479C104.904 8.06479 105.656 8.24977 106.326 8.61973C107 8.98969 107.533 9.53098 107.927 10.2436C108.322 10.9562 108.519 11.825 108.519 12.85ZM106.217 12.85C106.217 12.2435 106.131 11.731 105.958 11.3125C105.788 10.8941 105.542 10.5772 105.221 10.3619C104.903 10.1466 104.519 10.0389 104.07 10.0389C103.624 10.0389 103.241 10.1466 102.919 10.3619C102.598 10.5772 102.351 10.8941 102.178 11.3125C102.008 11.731 101.923 12.2435 101.923 12.85C101.923 13.4565 102.008 13.969 102.178 14.3874C102.351 14.8059 102.598 15.1228 102.919 15.3381C103.241 15.5534 103.624 15.6611 104.07 15.6611C104.519 15.6611 104.903 15.5534 105.221 15.3381C105.542 15.1228 105.788 14.8059 105.958 14.3874C106.131 13.969 106.217 13.4565 106.217 12.85ZM110.218 17.5078V8.19215H114.066C114.763 8.19215 115.365 8.318 115.872 8.56969C116.381 8.81835 116.774 9.17618 117.05 9.64318C117.326 10.1071 117.464 10.6575 117.464 11.2943C117.464 11.9403 117.323 12.4891 117.041 12.941C116.759 13.3898 116.358 13.7324 115.84 13.969C115.321 14.2025 114.707 14.3192 113.998 14.3192H111.564V12.5452H113.579C113.919 12.5452 114.202 12.5013 114.43 12.4133C114.66 12.3223 114.835 12.1859 114.953 12.0039C115.071 11.819 115.13 11.5824 115.13 11.2943C115.13 11.0063 115.071 10.7682 114.953 10.5802C114.835 10.3892 114.66 10.2466 114.43 10.1526C114.199 10.0556 113.916 10.0071 113.579 10.0071H112.469V17.5078H110.218ZM115.462 13.2503L117.782 17.5078H115.326L113.051 13.2503H115.462ZM119.083 17.5078V8.19215H122.931C123.629 8.19215 124.23 8.32861 124.737 8.60153C125.246 8.87142 125.639 9.24896 125.915 9.73415C126.191 10.2163 126.329 10.7773 126.329 11.4172C126.329 12.06 126.188 12.6225 125.906 13.1047C125.627 13.5838 125.228 13.9553 124.71 14.2191C124.191 14.483 123.575 14.6149 122.863 14.6149H120.488V12.8409H122.444C122.784 12.8409 123.068 12.7818 123.295 12.6635C123.525 12.5452 123.7 12.38 123.818 12.1677C123.936 11.9524 123.995 11.7022 123.995 11.4172C123.995 11.1291 123.936 10.8804 123.818 10.6712C123.7 10.4589 123.525 10.2952 123.295 10.1799C123.065 10.0647 122.781 10.0071 122.444 10.0071H121.334V17.5078H119.083Z"
        fill="#00419C" />
    <g clip-path="url(#clip0_5064_269395)">
        <path
            d="M55.258 6.26172C53.0163 6.26172 51.346 7.14857 50.3557 9.02575C49.9369 9.91261 49.6758 10.9571 49.6758 12.2086C49.6758 13.46 49.9369 14.5045 50.3557 15.4456C50.8238 16.3324 51.4495 16.9582 52.3363 17.4804C53.169 17.8992 54.2135 18.1604 55.3615 18.1604C56.1942 18.1604 56.9283 18.0569 57.4998 17.845C58.1255 17.6381 58.6478 17.377 59.1159 17.0124C59.5347 16.6478 59.8451 16.2832 60.1062 15.8644C60.3673 15.4456 60.5742 14.9233 60.6777 14.4553H57.6526C57.4949 14.9775 56.7657 15.8644 55.46 15.8644C54.4155 15.8644 53.5829 15.3421 53.1641 14.4553C52.967 14.0118 52.8685 13.5191 52.8537 12.9427H60.727V12.0016C60.727 10.8537 60.5201 9.80914 60.1013 8.92228C59.1602 7.14857 57.3865 6.26172 55.2482 6.26172H55.258ZM55.258 8.55769C56.9234 8.55769 57.5392 9.79929 57.6772 11.0113H52.8931C53.0803 9.24746 54.1248 8.55769 55.263 8.55769H55.258Z"
            fill="#00419C" />
        <path
            d="M67.8318 6.26172C65.59 6.26172 63.9198 7.14857 62.9294 9.02575C62.5106 9.91261 62.2495 10.9571 62.2495 12.2086C62.2495 13.46 62.5106 14.5045 62.9294 15.4456C63.3975 16.3324 64.0232 16.9582 64.9101 17.4804C65.7427 17.8992 66.7873 18.1604 67.9352 18.1604C68.7679 18.1604 69.502 18.0569 70.0735 17.845C70.6993 17.6381 71.2215 17.377 71.6896 17.0124C72.1084 16.6478 72.4188 16.2832 72.6799 15.8644C72.941 15.4456 73.148 14.9233 73.2514 14.4553H70.2263C70.0686 14.9775 69.3394 15.8644 68.0338 15.8644C66.9893 15.8644 66.1566 15.3421 65.7378 14.4553C65.5407 14.0118 65.4422 13.5191 65.4274 12.9427H73.3007V12.0016C73.3007 10.8537 73.0938 9.80914 72.675 8.92228C71.7339 7.14857 69.9602 6.26172 67.8219 6.26172H67.8318ZM67.8318 8.55769C69.4971 8.55769 70.113 9.79929 70.2509 11.0113H65.4668C65.6541 9.24746 66.6986 8.55769 67.8367 8.55769H67.8318Z"
            fill="#00419C" />
        <path
            d="M49.2028 6.46914H45.6553L41.6399 11.1498V2.50293H38.457V17.8948H41.6399V14.2143L42.5169 13.2634L45.7637 17.8948H49.4639L44.8818 11.4306L49.2028 6.46914Z"
            fill="#00419C" />
        <path
            d="M83.1691 8.40052C82.9227 7.93245 82.6518 7.60235 82.2822 7.25253C81.6811 6.67115 80.9027 6.26221 79.5675 6.26221C77.6361 6.26221 76.227 7.20326 75.4436 8.97697C75.079 9.86383 74.8721 10.9576 74.8721 12.2091C74.8721 13.4605 75.079 14.505 75.4436 15.4461C75.8624 16.3329 76.3847 16.9587 77.0596 17.4809C77.7297 17.9638 78.6264 18.1608 79.5626 18.1608C80.5529 18.1608 81.6516 17.7963 82.2773 17.1705C82.6419 16.8552 82.9572 16.4906 83.1642 16.0225V17.8997H86.347V2.50293H83.1642V8.40052H83.1691ZM82.908 13.9828C82.3857 15.1308 81.7058 15.5988 80.6662 15.5988C80.1439 15.5988 79.7251 15.4412 79.3605 15.18C78.9417 14.9189 78.6806 14.5001 78.4737 13.9778C78.2668 13.5098 78.1584 12.8841 78.1584 12.2041C78.1584 11.4749 78.2618 10.8492 78.4737 10.3762C78.8925 9.43518 79.6759 8.80945 80.6662 8.80945C81.1884 8.80945 81.6072 8.96712 82.0211 9.22825C82.7503 9.75051 83.1691 10.8985 83.1691 12.2041C83.1691 12.8841 83.1149 13.5098 82.908 13.9778V13.9828Z"
            fill="#00419C" />
        <path
            d="M30.6823 2.50293H27.7064L22.4395 17.8948H25.7799L26.9378 14.2439H32.4166L33.5547 17.8948H36.8952L31.6775 2.50293H30.6872H30.6823ZM27.6916 11.8395L29.687 5.52809L31.6578 11.8395H27.6867H27.6916Z"
            fill="#00419C" />
        <path d="M16.0915 13.1299H0V17.8943H16.0915V13.1299Z" fill="#006FFF" />
        <path d="M4.76438 4.51803V0L0 0.842512V10.1939L16.0915 7.35597V2.51768L4.76438 4.51803Z" fill="#47B6FF" />
    </g>
    <defs>
        <clipPath id="clip0_5064_269395">
            <rect width="115.464" height="21.7033" fill="white" />
        </clipPath>
    </defs>
</svg>