<svg width="118" height="23" viewBox="0 0 118 23" fill="none" xmlns="http://www.w3.org/2000/svg">
    <path d="M24.2241 18.4322H27.4672V12.2639H33.898V9.65696H27.4672V5.45267H34.4854V2.74023H24.2241V18.4322Z"
        fill="#114AAF" />
    <path d="M39.8016 2.74023H36.5586V18.4322H39.8016V2.74023Z" fill="#114AAF" />
    <path
        d="M86.2636 6.57227C83.9794 6.57227 82.2775 7.47641 81.2685 9.39019C80.8417 10.2943 80.5757 11.3592 80.5757 12.6351C80.5757 13.9109 80.8417 14.9758 81.2685 15.9352C81.7454 16.8394 82.3829 17.4773 83.2866 18.0097C84.135 18.4367 85.1993 18.7029 86.369 18.7029C87.2174 18.7029 87.9654 18.5974 88.5477 18.3814C89.1853 18.1705 89.7174 17.9042 90.1944 17.5325C90.6211 17.1608 90.9373 16.7891 91.2034 16.3622C91.4695 15.9352 91.6803 15.4028 91.7858 14.9256H88.7034C88.5427 15.458 87.7997 16.3622 86.4694 16.3622C85.4051 16.3622 84.5567 15.8297 84.13 14.9256C83.9292 14.4735 83.8288 13.9712 83.8137 13.3835H91.836V12.4241C91.836 11.2537 91.6251 10.1889 91.1984 9.28471C90.2395 7.47641 88.4323 6.57227 86.2535 6.57227H86.2636ZM86.2636 8.913C87.9604 8.913 88.5879 10.1788 88.7285 11.4145H83.8539C84.0446 9.61623 85.1089 8.913 86.2686 8.913H86.2636Z"
        fill="#114AAF" />
    <path
        d="M99.0761 6.57227C96.7919 6.57227 95.09 7.47641 94.081 9.39019C93.6543 10.2943 93.3882 11.3592 93.3882 12.6351C93.3882 13.9109 93.6543 14.9758 94.081 15.9352C94.5579 16.8394 95.1955 17.4773 96.0991 18.0097C96.9475 18.4367 98.0118 18.7029 99.1815 18.7029C100.03 18.7029 100.778 18.5974 101.36 18.3814C101.998 18.1705 102.53 17.9042 103.007 17.5325C103.434 17.1608 103.75 16.7891 104.016 16.3622C104.282 15.9352 104.493 15.4028 104.598 14.9256H101.516C101.355 15.458 100.612 16.3622 99.2819 16.3622C98.2176 16.3622 97.3692 15.8297 96.9425 14.9256C96.7417 14.4735 96.6413 13.9712 96.6262 13.3835H104.648V12.4241C104.648 11.2537 104.438 10.1889 104.011 9.28471C103.052 7.47641 101.245 6.57227 99.066 6.57227H99.0761ZM99.0761 8.913C100.773 8.913 101.4 10.1788 101.541 11.4145H96.6664C96.8571 9.61623 97.9214 8.913 99.0811 8.913H99.0761Z"
        fill="#114AAF" />
    <path
        d="M49.9025 6.7832L47.3925 15.9352L44.8573 6.7832H41.3481L45.4396 18.4869L45.3342 18.8586C45.1735 19.2855 44.9627 19.5518 44.6966 19.7075C44.4305 19.8682 44.0038 19.9184 43.5269 19.9184C43.2608 19.9184 42.6233 19.8632 42.4626 19.813V22.1537C42.7839 22.209 43.6323 22.3144 44.1092 22.3144C45.0129 22.3144 45.8111 22.209 46.4487 21.993C47.1414 21.7267 47.6736 21.355 48.1505 20.8226C48.6274 20.2902 49.009 19.4814 49.3202 18.6426L53.3615 6.7832H49.9076H49.9025Z"
        fill="#114AAF" />
    <path
        d="M80.0931 6.78378H76.4785L72.3871 11.5557V2.74023H69.144V18.4322H72.3871V14.68L73.2807 13.7106L76.589 18.4322H80.3591L75.6904 11.842L80.0931 6.78378Z"
        fill="#114AAF" />
    <path
        d="M114.703 8.75281C114.452 8.27562 114.175 7.93908 113.799 7.58244C113.186 6.98973 112.393 6.57281 111.033 6.57281C109.065 6.57281 107.629 7.53221 106.831 9.34051C106.459 10.2447 106.249 11.3598 106.249 12.6356C106.249 13.9115 106.459 14.9764 106.831 15.9358C107.258 16.8399 107.79 17.4778 108.477 18.0103C109.16 18.5025 110.074 18.7035 111.028 18.7035C112.037 18.7035 113.156 18.3317 113.794 17.6938C114.165 17.3723 114.487 17.0006 114.698 16.5235V18.4372H117.941V2.74023H114.698V8.75281H114.703ZM114.436 14.4439C113.904 15.6143 113.212 16.0915 112.152 16.0915C111.62 16.0915 111.193 15.9307 110.822 15.6645C110.395 15.3983 110.129 14.9713 109.918 14.4389C109.707 13.9617 109.597 13.3238 109.597 12.6306C109.597 11.8872 109.702 11.2493 109.918 10.767C110.345 9.80765 111.143 9.16972 112.152 9.16972C112.684 9.16972 113.111 9.33046 113.533 9.59668C114.276 10.1291 114.703 11.2995 114.703 12.6306C114.703 13.3238 114.647 13.9617 114.436 14.4389V14.4439Z"
        fill="#114AAF" />
    <path
        d="M61.2225 2.74023H58.1903L52.8237 18.4322H56.2274L57.4072 14.7101H62.9896L64.1493 18.4322H67.553L62.2366 2.74023H61.2275H61.2225ZM58.1753 12.2589L60.2084 5.82438L62.2165 12.2589H58.1702H58.1753Z"
        fill="#114AAF" />
    <path d="M4.92935 4.67621V0L0 0.86905V10.5524L16.6442 7.61657V2.6094L4.92935 4.67621Z" fill="#FF57A1" />
    <path d="M16.6487 13.4785H0V18.4317H16.6487V13.4785Z" fill="#006FFF" />
</svg>