<svg width="33" height="31" viewBox="0 0 33 31" fill="none" xmlns="http://www.w3.org/2000/svg">
<path d="M0.5 23.8715V29.3922C0.5 30.2431 1.18781 30.933 2.03606 30.933H3.44346C4.29171 30.933 4.97952 30.2431 4.97952 29.3922V28.3662C4.97952 27.6571 5.55296 27.082 6.25983 27.082H26.7401C27.447 27.082 28.0204 27.6571 28.0204 28.3662V29.3922C28.0204 30.2431 28.7083 30.933 29.5565 30.933H30.9639C31.8121 30.933 32.5 30.2431 32.5 29.3922V23.8715H0.5Z" fill="#114AAF"/>
<path d="M27.6056 4.90002H5.39859C3.40981 4.90002 1.7832 6.53156 1.7832 8.52797V16.171C1.7832 16.171 2.58221 15.2612 4.98241 15.2103V11.321C4.98241 9.613 7.88933 9.39472 10.423 9.39472C12.9566 9.39472 15.8635 9.613 15.8635 11.321V12.0954C15.8635 12.3758 16.0907 12.6036 16.3702 12.6036H16.5021H16.6339C16.9135 12.6036 17.1406 12.3758 17.1406 12.0954V11.321C17.1406 9.613 20.0476 9.39472 22.5812 9.39472C25.1148 9.39472 28.0217 9.613 28.0217 11.321V15.2103C30.4235 15.2612 31.2209 16.171 31.2209 16.171V8.52797C31.2209 6.53316 29.5943 4.90002 27.604 4.90002H27.6056Z" fill="#114AAF"/>
<path d="M16.4992 16.8094C4.28061 16.8094 0.490487 15.9379 0.500018 22.0163H32.5C32.5095 15.8981 28.7194 16.8094 16.5008 16.8094H16.4992Z" fill="#114AAF"/>
</svg>
