<svg width="64" height="45" viewBox="0 0 64 45" fill="none" xmlns="http://www.w3.org/2000/svg">
    <path
        d="M19.6494 0.522461C16.246 0.522461 13.4873 3.34365 13.4873 6.82426H25.8037C25.8037 3.34365 23.0451 0.522461 19.6416 0.522461H19.6494Z"
        fill="#196DFB" stroke="#66C5FF" stroke-width="1.04504" stroke-miterlimit="10" />
    <path
        d="M31.9742 0.522461C28.5707 0.522461 25.812 3.34365 25.812 6.82426H38.1284C38.1284 3.34365 35.3698 0.522461 31.9663 0.522461H31.9742Z"
        fill="#196DFB" stroke="#66C5FF" stroke-width="1.04504" stroke-miterlimit="10" />
    <path
        d="M18.7154 9.61818C17.335 12.2115 18.2776 15.4642 20.8135 16.8758L25.8024 7.47254C23.2665 6.06296 20.0859 7.02486 18.7055 9.61818H18.7134H18.7154Z"
        fill="#196DFB" stroke="#66C5FF" stroke-width="1.04504" stroke-miterlimit="10" />
    <path
        d="M32.9077 9.61818C34.2881 12.2115 33.3455 15.4642 30.8097 16.8758L25.8208 7.47254C28.3566 6.06296 31.5373 7.02486 32.9156 9.61818H32.9077Z"
        fill="#196DFB" stroke="#66C5FF" stroke-width="1.04504" stroke-miterlimit="10" />
    <path
        d="M19.6494 0.522461C16.246 0.522461 13.4873 3.34365 13.4873 6.82426H25.8037C25.8037 3.34365 23.0451 0.522461 19.6416 0.522461H19.6494Z"
        fill="#196DFB" stroke="#66C5FF" stroke-width="1.04504" stroke-miterlimit="10" />
    <path
        d="M31.9742 0.522461C28.5707 0.522461 25.812 3.34365 25.812 6.82426H38.1284C38.1284 3.34365 35.3698 0.522461 31.9663 0.522461H31.9742Z"
        fill="#196DFB" stroke="#66C5FF" stroke-width="1.04504" stroke-miterlimit="10" />
    <path
        d="M18.7154 9.61818C17.335 12.2115 18.2776 15.4642 20.8135 16.8758L25.8024 7.47254C23.2665 6.06296 20.0859 7.02486 18.7055 9.61818H18.7134H18.7154Z"
        fill="#196DFB" stroke="#66C5FF" stroke-width="1.04504" stroke-miterlimit="10" />
    <path
        d="M32.9077 9.61818C34.2881 12.2115 33.3455 15.4642 30.8097 16.8758L25.8208 7.47254C28.3566 6.06296 31.5373 7.02486 32.9156 9.61818H32.9077Z"
        fill="#196DFB" stroke="#66C5FF" stroke-width="1.04504" stroke-miterlimit="10" />
    <path d="M25.812 60.1349V7.12695" stroke="#66C5FF" stroke-width="1.04504" stroke-miterlimit="10" />
    <path
        d="M57.0777 21.3008C53.6742 21.3008 50.9155 24.122 50.9155 27.6026H63.2319C63.2319 24.122 60.4732 21.3008 57.0698 21.3008H57.0777Z"
        fill="#196DFB" stroke="#66C5FF" stroke-width="1.04504" stroke-miterlimit="10" />
    <path
        d="M69.4019 21.3008C65.9984 21.3008 63.2397 24.122 63.2397 27.6026H75.5561C75.5561 24.122 72.7975 21.3008 69.394 21.3008H69.4019Z"
        fill="#196DFB" stroke="#66C5FF" stroke-width="1.04504" stroke-miterlimit="10" />
    <path
        d="M56.1446 30.3965C54.7642 32.9898 55.7068 36.2425 58.2427 37.6541L63.2315 28.2509C60.6957 26.8413 57.515 27.8032 56.1347 30.3965H56.1426H56.1446Z"
        fill="#196DFB" stroke="#66C5FF" stroke-width="1.04504" stroke-miterlimit="10" />
    <path
        d="M70.3369 30.3965C71.7173 32.9898 70.7747 36.2425 68.2389 37.6541L63.25 28.2509C65.7858 26.8413 68.9665 27.8032 70.3448 30.3965H70.3369Z"
        fill="#196DFB" stroke="#66C5FF" stroke-width="1.04504" stroke-miterlimit="10" />
    <path
        d="M57.0777 21.3008C53.6742 21.3008 50.9155 24.122 50.9155 27.6026H63.2319C63.2319 24.122 60.4732 21.3008 57.0698 21.3008H57.0777Z"
        fill="#196DFB" stroke="#66C5FF" stroke-width="1.04504" stroke-miterlimit="10" />
    <path
        d="M69.4019 21.3008C65.9984 21.3008 63.2397 24.122 63.2397 27.6026H75.5561C75.5561 24.122 72.7975 21.3008 69.394 21.3008H69.4019Z"
        fill="#196DFB" stroke="#66C5FF" stroke-width="1.04504" stroke-miterlimit="10" />
    <path
        d="M56.1446 30.3965C54.7642 32.9898 55.7068 36.2425 58.2427 37.6541L63.2315 28.2509C60.6957 26.8413 57.515 27.8032 56.1347 30.3965H56.1426H56.1446Z"
        fill="#196DFB" stroke="#66C5FF" stroke-width="1.04504" stroke-miterlimit="10" />
    <path
        d="M70.3369 30.3965C71.7173 32.9898 70.7747 36.2425 68.2389 37.6541L63.25 28.2509C65.7858 26.8413 68.9665 27.8032 70.3448 30.3965H70.3369Z"
        fill="#196DFB" stroke="#66C5FF" stroke-width="1.04504" stroke-miterlimit="10" />
    <path d="M63.2412 57.805V27.9053" stroke="#66C5FF" stroke-width="1.04504" stroke-miterlimit="10" />
    <path
        d="M33.4021 34.2285C30.5775 34.2285 28.2881 36.5698 28.2881 39.4584H38.5095C38.5095 36.5698 36.2201 34.2285 33.3955 34.2285H33.4021Z"
        fill="#196DFB" stroke="#66C5FF" stroke-width="0.867282" stroke-miterlimit="10" />
    <path
        d="M43.6296 34.2285C40.805 34.2285 38.5156 36.5698 38.5156 39.4584H48.737C48.737 36.5698 46.4476 34.2285 43.623 34.2285H43.6296Z"
        fill="#196DFB" stroke="#66C5FF" stroke-width="0.867282" stroke-miterlimit="10" />
    <path
        d="M32.6277 41.7775C31.4822 43.9297 32.2645 46.6292 34.369 47.8007L38.5092 39.9969C36.4047 38.827 33.7651 39.6253 32.6195 41.7775H32.6261H32.6277Z"
        fill="#196DFB" stroke="#66C5FF" stroke-width="0.867282" stroke-miterlimit="10" />
    <path
        d="M44.4059 41.7775C45.5514 43.9297 44.7692 46.6292 42.6647 47.8007L38.5244 39.9969C40.6289 38.827 43.2685 39.6253 44.4124 41.7775H44.4059Z"
        fill="#196DFB" stroke="#66C5FF" stroke-width="0.867282" stroke-miterlimit="10" />
    <path
        d="M33.4021 34.2285C30.5775 34.2285 28.2881 36.5698 28.2881 39.4584H38.5095C38.5095 36.5698 36.2201 34.2285 33.3955 34.2285H33.4021Z"
        fill="#196DFB" stroke="#66C5FF" stroke-width="0.867282" stroke-miterlimit="10" />
    <path
        d="M43.6296 34.2285C40.805 34.2285 38.5156 36.5698 38.5156 39.4584H48.737C48.737 36.5698 46.4476 34.2285 43.623 34.2285H43.6296Z"
        fill="#196DFB" stroke="#66C5FF" stroke-width="0.867282" stroke-miterlimit="10" />
    <path
        d="M32.6277 41.7775C31.4822 43.9297 32.2645 46.6292 34.369 47.8007L38.5092 39.9969C36.4047 38.827 33.7651 39.6253 32.6195 41.7775H32.6261H32.6277Z"
        fill="#196DFB" stroke="#66C5FF" stroke-width="0.867282" stroke-miterlimit="10" />
    <path
        d="M44.4059 41.7775C45.5514 43.9297 44.7692 46.6292 42.6647 47.8007L38.5244 39.9969C40.6289 38.827 43.2685 39.6253 44.4124 41.7775H44.4059Z"
        fill="#196DFB" stroke="#66C5FF" stroke-width="0.867282" stroke-miterlimit="10" />
    <path d="M38.5171 64.5228V39.709" stroke="#66C5FF" stroke-width="0.867282" stroke-miterlimit="10" />
    <path
        d="M5.21191 26.9723C5.21191 24.0865 6.55453 21.7471 8.21074 21.7471C9.86696 21.7471 11.2096 24.0865 11.2096 26.9723"
        stroke="#66C5FF" stroke-width="1.04504" stroke-linecap="round" stroke-linejoin="round" />
    <path fill-rule="evenodd" clip-rule="evenodd"
        d="M2.23917 26.9723H14.1828C14.4144 26.9702 14.6322 26.862 14.7737 26.6787C14.9151 26.4953 14.9645 26.2572 14.9077 26.0327C14.3313 23.5953 11.5523 21.7471 8.21101 21.7471C4.86971 21.7471 2.09073 23.5953 1.51426 26.0327C1.45747 26.2572 1.5069 26.4953 1.64835 26.6787C1.7898 26.862 2.00761 26.9702 2.23917 26.9723V26.9723Z"
        stroke="#66C5FF" stroke-width="1.04504" stroke-linecap="round" stroke-linejoin="round" />
    <path d="M8.21112 30.7046V27.7188" stroke="#66C5FF" stroke-width="1.04504" stroke-linecap="round"
        stroke-linejoin="round" />
    <path
        d="M15.6755 29.958L13.884 32.3467C13.6021 32.7226 13.1596 32.9438 12.6897 32.9438H4.06175C3.41915 32.9438 2.84865 33.355 2.64544 33.9647L2.23926 35.1832"
        stroke="#66C5FF" stroke-width="1.04504" stroke-linecap="round" stroke-linejoin="round" />
    <path d="M14.1825 35.1837L13.436 32.9443" stroke="#66C5FF" stroke-width="1.04504" stroke-linecap="round"
        stroke-linejoin="round" />
</svg>