<svg width="16" height="16" viewBox="0 0 16 16" fill="none" xmlns="http://www.w3.org/2000/svg">
  <path fill-rule="evenodd" clip-rule="evenodd"
    d="M6.68836 8.6304C5.69549 7.63753 4.94702 6.52585 4.44973 5.39805C4.3445 5.15959 4.40645 4.8804 4.5906 4.69625L5.28561 4.00209C5.85503 3.43267 5.85503 2.62734 5.35774 2.13006L4.36148 1.13379C3.69871 0.471028 2.62437 0.471028 1.96161 1.13379L1.40832 1.68708C0.779496 2.3159 0.517276 3.22307 0.686998 4.12259C1.10621 6.34001 2.3944 8.76788 4.47264 10.8461C6.55089 12.9244 8.97876 14.2126 11.1962 14.6318C12.0957 14.8015 13.0029 14.5393 13.6317 13.9105L14.1841 13.358C14.8469 12.6952 14.8469 11.6209 14.1841 10.9581L13.1887 9.96272C12.6914 9.46544 11.8852 9.46544 11.3888 9.96272L10.6225 10.7299C10.4384 10.914 10.1592 10.976 9.92071 10.8707C8.79291 10.3726 7.68123 9.62328 6.68836 8.6304Z"
    stroke="#0D274A" stroke-opacity="0.8" stroke-width="1.27291" stroke-linecap="round" stroke-linejoin="round" />
</svg>