<svg width="31" height="25" viewBox="0 0 31 25" fill="none" xmlns="http://www.w3.org/2000/svg">
    <path
        d="M10.9316 0.368164H12.1338C12.2217 0.368284 12.3533 0.404569 12.5078 0.486328C12.6468 0.559903 12.7787 0.657574 12.8789 0.75293L18.9512 9.9043L19.0605 10.0684H24.9238C26.0937 10.0684 26.9589 10.9337 26.959 12.1035C26.959 13.2735 26.0938 14.1387 24.9238 14.1387H19.0605L18.9512 14.3037L12.8564 23.4883L12.8438 23.5078L12.834 23.5273C12.7276 23.7401 12.4532 23.8949 12.2061 23.8457L12.1699 23.8389H10.9316C10.6434 23.8389 10.3862 23.6803 10.2295 23.4453C10.0707 23.2071 10.0459 22.9405 10.1455 22.7412L10.1494 22.7334L10.1523 22.7256L13.6719 14.7422L13.9004 14.2246H7.3252L7.21484 14.3574L5.51074 16.4004C5.30654 16.6008 5.05725 16.7138 4.83691 16.7139H3.41992L4.50781 12.3652L4.53027 12.2754L4.50781 12.1865L3.40527 7.78027L4.93945 7.58008C5.15544 7.58562 5.39774 7.69666 5.59668 7.8916L7.30078 9.93652L7.41113 10.0684H13.9893L13.7578 9.5498L10.1611 1.5C9.98224 0.934704 10.3663 0.368164 10.9316 0.368164Z"
        fill="#0099FF" stroke="white" stroke-width="0.737042" />
</svg>