<svg width="10" height="11" viewBox="0 0 10 11" fill="none" xmlns="http://www.w3.org/2000/svg">
  <path
    d="M9.6241 8.74807C9.5841 9.18807 9.4761 9.60007 9.3001 9.98407L5.6641 10.7641C5.7041 10.3161 5.8121 9.90407 5.9881 9.52807L9.6241 8.74807ZM5.6641 8.43607V6.13207L4.5241 6.36007V7.65607C4.5241 7.77607 4.4921 7.88007 4.4281 7.96807L3.8401 8.84407C3.6721 9.07607 3.4641 9.21607 3.2161 9.26407L9.7692e-05 9.94807C0.0320978 9.57207 0.140098 9.16007 0.324098 8.71207L3.3961 8.06407V6.61207L0.528098 7.21207C0.576098 6.76407 0.688098 6.35607 0.864098 5.98807L3.3961 5.44807V0.96007C3.7001 0.57607 4.0761 0.25607 4.5241 7.00951e-05V5.22007L5.6641 4.96807V1.51207C5.9841 1.12007 6.3601 0.80407 6.7921 0.56407V4.72807L9.6241 4.12807C9.5841 4.56007 9.4761 4.96807 9.3001 5.35207L6.7921 5.89207V7.04407L9.6241 6.44407C9.5921 6.86007 9.4841 7.26807 9.3001 7.66807L5.6641 8.43607Z"
    fill="#4A668C" />
</svg>